<?xml version="1.0" encoding="utf-8"?>
<svg xmlns="http://www.w3.org/2000/svg" xmlns:xlink="http://www.w3.org/1999/xlink" version= "1.1" width="1080px" height="2307px" viewBox="0 0 1080 2307">
<g id="layer1" opacity="0.0">
<g style="fill:rgb(0,0,0); fill-opacity:1.0; stroke-linejoin: miter">
<path d="M20.233068,1.02903396E-4L540.00006,6.029034E-4L1059.767,0.0011029034L1059.767,2219.838Q540.00006,2219.8384,20.233068,2219.8386Q20.233068,1109.9194,20.233068,1.02903396E-4"/>
</g>
</g>
<g id="layer2">
<g style="fill:rgb(0,0,0); fill-opacity:1.0; stroke-linejoin: miter">
<path d="M398.586,1476.7859L537.8415,1234.89L526.933,1238.0352L472.42212,1332.8823L471.7143,1140.9932L595.61725,1139.9437L638.48065,1064.8635L468.79938,1053.2207L469.26254,929.7534L719.551,925.1363L761.0918,850.4799Q627.3296,851.89606,358.6992,857.887L374.99615,1292.0531L397.21683,1295.8335L398.586,1476.7859"/>
</g>
<g style="fill:rgb(0,0,0); fill-opacity:1.0; stroke-linejoin: miter">
<path d="M595.5452,1139.6768L595.5452,1139.6772L576.8672,1139.7388Q597.8688,1101.7384,618.8704,1063.738Q628.53265,1064.4867,638.19495,1065.2355L595.5452,1139.6768"/>
</g>
<g style="fill:rgb(188,0,0); fill-opacity:1.0; stroke-linejoin: miter">
<path d="M602.3019,1142.3425L616.296,1143.2573L661.8165,1064.2112L669.5908,1064.0283L566.3647,1243.9037L574.7469,1244.4071L678.1457,1060.8323L646.8774,1061.6627L602.3019,1142.3425"/>
</g>
<g style="fill:rgb(0,0,0); fill-opacity:1.0; stroke-linejoin: miter">
<path d="M603.74243,1124.1958L599.6761,1132.0128L595.60974,1139.83Q533.56036,1140.416,471.511,1141.0022Q478.5194,1130.6774,485.52783,1120.3525Q540.3581,1121.7914,595.18835,1123.2303L603.74243,1124.1958"/>
</g>
<g style="fill:rgb(188,0,0); fill-opacity:1.0; stroke-linejoin: miter">
<path d="M398.57913,1476.6616L398.57913,1476.662L538.1349,1234.8522Q532.63574,1236.4377,527.1366,1238.0233Q462.72083,1351.8893,398.30505,1465.7554L398.57913,1476.6616"/>
</g>
<g style="fill:rgb(0,0,0); fill-opacity:1.0; stroke-linejoin: miter">
<path d="M683.59705,902.67474L672.5931,925.77673L719.51245,925.1784L761.02594,850.52527L755.0918,850.4687L716.2498,921.4225L682.42126,921.7747L694.7429,892.6985L683.59705,902.67474"/>
</g>
<g style="fill:rgb(188,0,0); fill-opacity:1.0; stroke-linejoin: miter">
<path d="M723.49835,928.203L753.99274,927.0359L838.917,778.23425L831.3123,781.20874L748.31793,925.05725L741.1083,925.5959L805.6767,810.7762L786.79956,816.10895L723.49835,928.203"/>
</g>
<g style="fill:rgb(0,0,0); fill-opacity:1.0; stroke-linejoin: miter">
<path d="M509.9554,924.02344L509.9554,924.02344L509.9554,924.0244L509.95535,924.0541L509.66855,1045.9154C509.65216,1052.8754,503.99673,1058.5042,497.0368,1058.4878C490.07687,1058.4714,484.448,1052.816,484.4644,1045.8561L484.4644,1045.8561L484.7512,923.99475L484.75113,924.0244L484.75113,924.02344C484.75113,917.0635,490.3933,911.4213,497.35327,911.4213C504.31323,911.4213,509.9554,917.0635,509.9554,924.02344 Z"/>
</g>
</g>
<g id="layer3" opacity="0.45882353">
<g style="fill:rgb(0,0,0); fill-opacity:1.0; stroke-linejoin: miter">
<path d="M398.29333,1394.0266L398.29333,1394.0271Q412.16895,1367.1223,426.04453,1340.2166Q425.22125,1081.1124,424.39795,822.00836Q401.25052,832.47626,378.10306,842.9442L398.29333,1394.0266"/>
</g>
<g style="fill:rgb(0,0,0); fill-opacity:1.0; stroke-linejoin: miter">
<path d="M415.98178,1102.2081L415.98178,1102.2086L535.1725,1095.1677Q545.4828,1077.039,555.7931,1058.9102Q478.396,1060.4031,400.99887,1061.8961L415.98178,1102.2081"/>
</g>
<g style="fill:rgb(0,0,0); fill-opacity:1.0; stroke-linejoin: miter">
<path d="M411.5471,887.4698L411.5471,887.4708L662.436,877.4662L683.5399,851.0547L596.8124,856.6847L377.10663,846.1815L411.5471,887.4698"/>
</g>
<g style="fill:rgb(0,0,0); fill-opacity:1.0; stroke-linejoin: miter">
<path d="M678.6488,865.64276L678.6488,865.6437L670.3627,878.96716L689.16815,877.59424L703.23505,851.0437L685.2795,851.6874L678.6488,865.64276"/>
</g>
</g>
<g id="layer4">
<g style="fill:url(#grad0); fill-opacity:1.0; stroke-linejoin: miter">
<path d="M344.52795,1401.991L410.38535,1296.2056L409.29416,1086.1702L534.459,1083.801L577.88586,1010.1554L408.84592,1009.9203L407.73376,873.0054L659.9037,869.9251L787.70544,649.73334L778.2209,652.54803L695.7204,795.1024L340.6571,796.3337L344.52795,1401.991"/>
</g>
<g style="fill:rgb(188,0,0); fill-opacity:1.0; stroke-linejoin: miter">
<path d="M666.5989,869.47406L666.5989,869.4745L686.81854,867.9193Q708.3037,831.3961,729.7889,794.8729Q721.5601,794.55383,713.33136,794.2347L666.5989,869.47406"/>
</g>
<g style="fill:rgb(188,0,0); fill-opacity:1.0; stroke-linejoin: miter">
<path d="M722.94183,824.8697L722.94183,824.87067L739.01636,797.5736L721.557,797.713L727.8067,794.85364L757.2853,795.8535L738.5787,824.73035L722.94183,824.8697"/>
</g>
<g style="fill:rgb(188,0,0); fill-opacity:1.0; stroke-linejoin: miter">
<path d="M344.38702,1402.0417L344.38702,1402.0422Q377.43832,1348.9866,410.48962,1295.9299Q410.1932,1278.9667,409.8968,1262.0034Q377.25082,1309.5542,344.60486,1357.105L344.38702,1402.0417"/>
</g>
<g style="fill:rgb(188,0,0); fill-opacity:1.0; stroke-linejoin: miter">
<path d="M444.4611,1084.2661L444.4611,1084.2671L534.1881,1083.8442L577.9183,1010.0167L561.8639,1009.78L521.22046,1075.9015L444.4611,1084.2661"/>
</g>
<g style="fill:rgb(65,154,186); fill-opacity:1.0; stroke-linejoin: miter">
<path d="M407.1308,872.7561L407.1308,872.75653Q407.1308,872.7578,407.1308,872.7561"/>
</g>
<g style="fill:rgb(188,0,0); fill-opacity:1.0; stroke-linejoin: miter">
<path d="M407.49838,872.75934L659.59827,870.10376L787.5753,649.87897L778.35425,652.5068L695.79095,795.0255L685.0065,795.26245L645.3312,856.1775L407.49838,872.75934"/>
</g>
<g style="fill:rgb(188,0,0); fill-opacity:1.0; stroke-linejoin: miter">
<path d="M345.72522,799.406L345.72522,799.40656L351.5632,1327.9648Q357.04852,1318.3333,362.5338,1308.7018L358.821,799.24695L345.72522,799.406"/>
</g>
</g>
<g id="layer5">
<g style="fill:rgb(255,255,255); fill-opacity:1.0; stroke-linejoin: miter">
<path d="M537.84485,796.71326L454.92404,869.413L506.15732,865.6798L583.17725,796.7762L537.84485,796.71326 Z"/>
</g>
<g style="fill:rgb(255,255,255); fill-opacity:1.0; stroke-linejoin: miter">
<path d="M407.96954,910.5783L339.9486,970.2141L340.50784,1013.86993L408.27356,953.25085L407.96954,910.5783 Z"/>
</g>
<g style="fill:rgb(255,255,255); fill-opacity:1.0; stroke-linejoin: miter">
<path d="M543.7996,871.0609L504.17435,872.0414L408.355,958.71136L408.66553,995.14355L543.7996,871.0609 Z"/>
</g>
<g style="fill:rgb(255,255,255); fill-opacity:1.0; stroke-linejoin: miter">
<path d="M570.97504,846.10266L570.9461,846.1033L570.71436,846.1079Q570.71716,846.10846,570.7201,846.1089L569.1508,847.78394L570.9808,846.10266L570.97504,846.10364 Z"/>
</g>
</g>
<defs>
<linearGradient id="grad0" gradientUnits="userSpaceOnUse" x1="340.6571" y1="1025.8622" x2="649.5193" y2="1282.7041" >
<stop offset="0.0%" style="stop-color:rgb(255,17,0); stop-opacity:1.0" />
<stop offset="100.0%" style="stop-color:rgb(0,0,0); stop-opacity:1.0" />
</linearGradient>
</defs>
</svg>